<svg xmlns="http://www.w3.org/2000/svg" width="582" height="434" viewBox="0 0 582 434">
    <rect width="100%" height="100%" fill="#0f0f11"/><text x="8" y="26" font-family="Segoe UI, Inter, sans-serif" font-size="14"
    font-weight="600" fill="#e9e9ee" text-anchor="start">可替換鍵面 — 28 個</text><rect x="8" y="40" width="74" height="74" rx="10" fill="#1b1b1e"/><g transform="translate(45,77) scale(0.95)"><path d="M4 -26 L-16 4 L-2 4 L-4 26 L16 -4 L2 -4 Z" fill="#e9e9ee"/></g><text x="45" y="125" font-family="Segoe UI, Inter, sans-serif" font-size="8"
    font-weight="400" fill="#8a8a92" text-anchor="middle">FAST</text><rect x="90" y="40" width="74" height="74" rx="10" fill="#1b1b1e"/><g transform="translate(127,77) scale(0.95)"><circle cx="0" cy="0" r="22" fill="none" stroke="#e9e9ee" stroke-width="5"/><path d="M-10 1 L-3 8 L11 -8" fill="none" stroke="#e9e9ee" stroke-width="5"
    stroke-linecap="round" stroke-linejoin="round"/></g><text x="127" y="125" font-family="Segoe UI, Inter, sans-serif" font-size="8"
    font-weight="400" fill="#8a8a92" text-anchor="middle">APPR</text><rect x="172" y="40" width="74" height="74" rx="10" fill="#1b1b1e"/><g transform="translate(209,77) scale(0.95)"><circle cx="0" cy="0" r="22" fill="none" stroke="#e9e9ee" stroke-width="5"/><path d="M-8 -8 L8 8 M8 -8 L-8 8" fill="none" stroke="#e9e9ee" stroke-width="5"
    stroke-linecap="round" stroke-linejoin="round"/></g><text x="209" y="125" font-family="Segoe UI, Inter, sans-serif" font-size="8"
    font-weight="400" fill="#8a8a92" text-anchor="middle">REJ</text><rect x="254" y="40" width="74" height="74" rx="10" fill="#1b1b1e"/><g transform="translate(291,77) scale(0.95)"><rect x="-13" y="-13" width="26" height="26" rx="4" fill="#e9e9ee"/></g><text x="291" y="125" font-family="Segoe UI, Inter, sans-serif" font-size="8"
    font-weight="400" fill="#8a8a92" text-anchor="middle">STOP</text><rect x="336" y="40" width="74" height="74" rx="10" fill="#1b1b1e"/><g transform="translate(373,77) scale(0.95)"><path d="M 0 0 Q 4 -13 0 -24 Q -4 -13 0 0 Z" fill="#e9e9ee"
        transform="rotate(0)"/><path d="M 0 0 Q 4 -13 0 -24 Q -4 -13 0 0 Z" fill="#e9e9ee"
        transform="rotate(36)"/><path d="M 0 0 Q 4 -13 0 -24 Q -4 -13 0 0 Z" fill="#e9e9ee"
        transform="rotate(72)"/><path d="M 0 0 Q 4 -13 0 -24 Q -4 -13 0 0 Z" fill="#e9e9ee"
        transform="rotate(108)"/><path d="M 0 0 Q 4 -13 0 -24 Q -4 -13 0 0 Z" fill="#e9e9ee"
        transform="rotate(144)"/><path d="M 0 0 Q 4 -13 0 -24 Q -4 -13 0 0 Z" fill="#e9e9ee"
        transform="rotate(180)"/><path d="M 0 0 Q 4 -13 0 -24 Q -4 -13 0 0 Z" fill="#e9e9ee"
        transform="rotate(216)"/><path d="M 0 0 Q 4 -13 0 -24 Q -4 -13 0 0 Z" fill="#e9e9ee"
        transform="rotate(252)"/><path d="M 0 0 Q 4 -13 0 -24 Q -4 -13 0 0 Z" fill="#e9e9ee"
        transform="rotate(288)"/><path d="M 0 0 Q 4 -13 0 -24 Q -4 -13 0 0 Z" fill="#e9e9ee"
        transform="rotate(324)"/></g><text x="373" y="125" font-family="Segoe UI, Inter, sans-serif" font-size="8"
    font-weight="400" fill="#8a8a92" text-anchor="middle">CLAUDE</text><rect x="418" y="40" width="74" height="74" rx="10" fill="#1b1b1e"/><g transform="translate(455,77) scale(0.95)"><circle cx="-14" cy="-16" r="6" fill="#e9e9ee"/><circle cx="14" cy="-16" r="6" fill="#e9e9ee"/><circle cx="0" cy="18" r="6" fill="#e9e9ee"/><path d="M-14 -10 v6 a8 8 0 0 0 8 8 h12 a8 8 0 0 1 8 -8 v-6" fill="none" stroke="#e9e9ee" stroke-width="5"
    stroke-linecap="round" stroke-linejoin="round"/><path d="M-14 -10 C-14 2 0 2 0 12 M14 -10 C14 2 0 2 0 12" fill="none" stroke="#e9e9ee" stroke-width="5"
    stroke-linecap="round" stroke-linejoin="round"/></g><text x="455" y="125" font-family="Segoe UI, Inter, sans-serif" font-size="8"
    font-weight="400" fill="#8a8a92" text-anchor="middle">FORK</text><rect x="500" y="40" width="74" height="74" rx="10" fill="#1b1b1e"/><g transform="translate(537,77) scale(0.95)"><circle cx="-14" cy="-16" r="6" fill="#e9e9ee"/><circle cx="-14" cy="16" r="6" fill="#e9e9ee"/><circle cx="14" cy="-16" r="6" fill="#e9e9ee"/><path d="M-14 -10 v20 M-14 -16 h10 a18 18 0 0 1 18 0" fill="none" stroke="#e9e9ee" stroke-width="5"
    stroke-linecap="round" stroke-linejoin="round"/></g><text x="537" y="125" font-family="Segoe UI, Inter, sans-serif" font-size="8"
    font-weight="400" fill="#8a8a92" text-anchor="middle">BRCH</text><rect x="8" y="137" width="74" height="74" rx="10" fill="#1b1b1e"/><g transform="translate(45,174) scale(0.95)"><circle cx="-14" cy="-16" r="6" fill="#e9e9ee"/><circle cx="-14" cy="16" r="6" fill="#e9e9ee"/><circle cx="14" cy="16" r="6" fill="#e9e9ee"/><path d="M-14 -10 v20 M-14 -2 a16 16 0 0 0 16 16 h6" fill="none" stroke="#e9e9ee" stroke-width="5"
    stroke-linecap="round" stroke-linejoin="round"/></g><text x="45" y="222" font-family="Segoe UI, Inter, sans-serif" font-size="8"
    font-weight="400" fill="#8a8a92" text-anchor="middle">MRG</text><rect x="90" y="137" width="74" height="74" rx="10" fill="#1b1b1e"/><g transform="translate(127,174) scale(0.95)"><path d="M-20 -8 h30 a8 8 0 0 1 8 8 v14 M2 -18 L12 -8 L2 2" fill="none" stroke="#e9e9ee" stroke-width="5"
    stroke-linecap="round" stroke-linejoin="round"/><circle cx="-20" cy="-8" r="6" fill="#e9e9ee"/><circle cx="18" cy="18" r="6" fill="#e9e9ee"/></g><text x="127" y="222" font-family="Segoe UI, Inter, sans-serif" font-size="8"
    font-weight="400" fill="#8a8a92" text-anchor="middle">PR</text><rect x="172" y="137" width="74" height="74" rx="10" fill="#1b1b1e"/><g transform="translate(209,174) scale(0.95)"><rect x="-22" y="-22" width="44" height="44" rx="8" fill="none"
    stroke="#e9e9ee" stroke-width="5" transform="rotate(45)"/><path d="M-6 -6 L6 6" fill="none" stroke="#e9e9ee" stroke-width="5"
    stroke-linecap="round" stroke-linejoin="round"/></g><text x="209" y="222" font-family="Segoe UI, Inter, sans-serif" font-size="8"
    font-weight="400" fill="#8a8a92" text-anchor="middle">GIT</text><rect x="254" y="137" width="74" height="74" rx="10" fill="#1b1b1e"/><g transform="translate(291,174) scale(0.95)"><path d="M-20 -10 h22 M-9 -21 v22 M-2 14 h22" fill="none" stroke="#e9e9ee" stroke-width="6"
    stroke-linecap="round" stroke-linejoin="round"/></g><text x="291" y="222" font-family="Segoe UI, Inter, sans-serif" font-size="8"
    font-weight="400" fill="#8a8a92" text-anchor="middle">DIFF</text><rect x="336" y="137" width="74" height="74" rx="10" fill="#1b1b1e"/><g transform="translate(373,174) scale(0.95)"><path d="M-10 -18 L18 0 L-10 18 Z" fill="#e9e9ee"/></g><text x="373" y="222" font-family="Segoe UI, Inter, sans-serif" font-size="8"
    font-weight="400" fill="#8a8a92" text-anchor="middle">PLAY</text><rect x="418" y="137" width="74" height="74" rx="10" fill="#1b1b1e"/><g transform="translate(455,174) scale(0.95)"><rect x="-24" y="-18" width="48" height="36" rx="5" fill="none"
    stroke="#e9e9ee" stroke-width="5"/><path d="M-14 -6 L-6 0 L-14 6 M-2 8 h12" fill="none" stroke="#e9e9ee" stroke-width="4"
    stroke-linecap="round" stroke-linejoin="round"/></g><text x="455" y="222" font-family="Segoe UI, Inter, sans-serif" font-size="8"
    font-weight="400" fill="#8a8a92" text-anchor="middle">TERM</text><rect x="500" y="137" width="74" height="74" rx="10" fill="#1b1b1e"/><g transform="translate(537,174) scale(0.95)"><path d="M-9 -17 L-14 -24 M9 -17 L14 -24" fill="none" stroke="#e9e9ee" stroke-width="3"
    stroke-linecap="round" stroke-linejoin="round"/><ellipse cx="0" cy="3" rx="12" ry="17" fill="#e9e9ee"/><path d="M-12 -4 h-9 M12 -4 h9 M-12 4 h-10 M12 4 h10 M-11 12 h-8 M11 12 h8" fill="none" stroke="#e9e9ee" stroke-width="3"
    stroke-linecap="round" stroke-linejoin="round"/><circle cx="0" cy="-13" r="6" fill="#e9e9ee"/><path d="M0 -12 v28" fill="none" stroke="#1b1b1e" stroke-width="2"
    stroke-linecap="round" stroke-linejoin="round"/></g><text x="537" y="222" font-family="Segoe UI, Inter, sans-serif" font-size="8"
    font-weight="400" fill="#8a8a92" text-anchor="middle">BUG</text><rect x="8" y="234" width="74" height="74" rx="10" fill="#1b1b1e"/><g transform="translate(45,271) scale(0.95)"><path d="M-7 -22 v14 L-18 14 a4 4 0 0 0 4 6 h28 a4 4 0 0 0 4 -6 L7 -8 v-14 M-11 -22 h22" fill="none" stroke="#e9e9ee" stroke-width="5"
    stroke-linecap="round" stroke-linejoin="round"/></g><text x="45" y="319" font-family="Segoe UI, Inter, sans-serif" font-size="8"
    font-weight="400" fill="#8a8a92" text-anchor="middle">LAB</text><rect x="90" y="234" width="74" height="74" rx="10" fill="#1b1b1e"/><g transform="translate(127,271) scale(0.95)"><path d="M0 -24 L5 -6 L23 0 L5 6 L0 24 L-5 6 L-23 0 L-5 -6 Z" fill="#e9e9ee"/></g><text x="127" y="319" font-family="Segoe UI, Inter, sans-serif" font-size="8"
    font-weight="400" fill="#8a8a92" text-anchor="middle">MAGIC</text><rect x="172" y="234" width="74" height="74" rx="10" fill="#1b1b1e"/><g transform="translate(209,271) scale(0.95)"><path d="M-20 20 L-4 -16 L20 8 Z" fill="none" stroke="#e9e9ee" stroke-width="5"
    stroke-linecap="round" stroke-linejoin="round"/><circle cx="14" cy="-14" r="4" fill="#e9e9ee"/><circle cx="2" cy="-22" r="3" fill="#e9e9ee"/><circle cx="22" cy="-4" r="3" fill="#e9e9ee"/></g><text x="209" y="319" font-family="Segoe UI, Inter, sans-serif" font-size="8"
    font-weight="400" fill="#8a8a92" text-anchor="middle">PARTY</text><rect x="254" y="234" width="74" height="74" rx="10" fill="#1b1b1e"/><g transform="translate(291,271) scale(0.95)"><path d="M14 -20 L22 -12 L-2 12 L-12 14 L-10 4 Z M-12 14 L-20 22" fill="none" stroke="#e9e9ee" stroke-width="5"
    stroke-linecap="round" stroke-linejoin="round"/></g><text x="291" y="319" font-family="Segoe UI, Inter, sans-serif" font-size="8"
    font-weight="400" fill="#8a8a92" text-anchor="middle">PAINT</text><rect x="336" y="234" width="74" height="74" rx="10" fill="#1b1b1e"/><g transform="translate(373,271) scale(0.95)"><circle cx="0" cy="0" r="21" fill="none" stroke="#e9e9ee" stroke-width="5"/><path d="M0 -11 v11 l8 6" fill="none" stroke="#e9e9ee" stroke-width="4"
    stroke-linecap="round" stroke-linejoin="round"/></g><text x="373" y="319" font-family="Segoe UI, Inter, sans-serif" font-size="8"
    font-weight="400" fill="#8a8a92" text-anchor="middle">TIME</text><rect x="418" y="234" width="74" height="74" rx="10" fill="#1b1b1e"/><g transform="translate(455,271) scale(0.95)"><path d="M-22 16 v-28 h12 l5 6 h27 v22 z" fill="none" stroke="#e9e9ee" stroke-width="5"
    stroke-linecap="round" stroke-linejoin="round"/></g><text x="455" y="319" font-family="Segoe UI, Inter, sans-serif" font-size="8"
    font-weight="400" fill="#8a8a92" text-anchor="middle">FOLD</text><rect x="500" y="234" width="74" height="74" rx="10" fill="#1b1b1e"/><g transform="translate(537,271) scale(0.95)"><path d="M12 -20 L20 -12 L-4 12 L-14 14 L-12 4 Z M-20 20 h40" fill="none" stroke="#e9e9ee" stroke-width="5"
    stroke-linecap="round" stroke-linejoin="round"/></g><text x="537" y="319" font-family="Segoe UI, Inter, sans-serif" font-size="8"
    font-weight="400" fill="#8a8a92" text-anchor="middle">NEW</text><rect x="8" y="331" width="74" height="74" rx="10" fill="#1b1b1e"/><g transform="translate(45,368) scale(0.95)"><path d="M-16 -12 h32 M-11 -12 v24 M0 -12 v24 M11 -12 v24 M-13 -12 l2 26 h22 l2 -26 M-7 -12 v-6 h14 v6" fill="none" stroke="#e9e9ee" stroke-width="4"
    stroke-linecap="round" stroke-linejoin="round"/></g><text x="45" y="416" font-family="Segoe UI, Inter, sans-serif" font-size="8"
    font-weight="400" fill="#8a8a92" text-anchor="middle">DEL</text><rect x="90" y="331" width="74" height="74" rx="10" fill="#1b1b1e"/><g transform="translate(127,368) scale(0.95)"><path d="M0 -20 v26 M-10 -4 L0 6 L10 -4 M-18 16 h36" fill="none" stroke="#e9e9ee" stroke-width="5"
    stroke-linecap="round" stroke-linejoin="round"/></g><text x="127" y="416" font-family="Segoe UI, Inter, sans-serif" font-size="8"
    font-weight="400" fill="#8a8a92" text-anchor="middle">DWN</text><rect x="172" y="331" width="74" height="74" rx="10" fill="#1b1b1e"/><g transform="translate(209,368) scale(0.95)"><path d="M0 16 v-26 M-10 0 L0 -10 L10 0 M-18 -16 h36" fill="none" stroke="#e9e9ee" stroke-width="5"
    stroke-linecap="round" stroke-linejoin="round"/></g><text x="209" y="416" font-family="Segoe UI, Inter, sans-serif" font-size="8"
    font-weight="400" fill="#8a8a92" text-anchor="middle">UPL</text><rect x="254" y="331" width="74" height="74" rx="10" fill="#1b1b1e"/><g transform="translate(291,368) scale(0.95)"><path d="M-16 18 L0 -20 L16 18 L0 8 Z" fill="none" stroke="#e9e9ee"
    stroke-width="5" stroke-linejoin="round"/></g><text x="291" y="416" font-family="Segoe UI, Inter, sans-serif" font-size="8"
    font-weight="400" fill="#8a8a92" text-anchor="middle">NAV</text><rect x="336" y="331" width="74" height="74" rx="10" fill="#1b1b1e"/><g transform="translate(373,368) scale(0.95)"><circle cx="0" cy="0" r="20" fill="none" stroke="#e9e9ee" stroke-width="5"/><path d="M0 -10 v20 M-10 0 h20" fill="none" stroke="#e9e9ee" stroke-width="5"
    stroke-linecap="round" stroke-linejoin="round"/></g><text x="373" y="416" font-family="Segoe UI, Inter, sans-serif" font-size="8"
    font-weight="400" fill="#8a8a92" text-anchor="middle">MIND&#43;</text><rect x="418" y="331" width="74" height="74" rx="10" fill="#1b1b1e"/><g transform="translate(455,368) scale(0.95)"><circle cx="0" cy="0" r="20" fill="none" stroke="#e9e9ee" stroke-width="5"/><path d="M-10 0 h20" fill="none" stroke="#e9e9ee" stroke-width="5"
    stroke-linecap="round" stroke-linejoin="round"/></g><text x="455" y="416" font-family="Segoe UI, Inter, sans-serif" font-size="8"
    font-weight="400" fill="#8a8a92" text-anchor="middle">MIND-</text><rect x="500" y="331" width="74" height="74" rx="10" fill="#1b1b1e"/><g transform="translate(537,368) scale(0.95)"><circle cx="0" cy="0" r="18" fill="none" stroke="#e9e9ee" stroke-width="4"/></g><text x="537" y="416" font-family="Segoe UI, Inter, sans-serif" font-size="8"
    font-weight="400" fill="#8a8a92" text-anchor="middle">EMPTY</text></svg>