<svg xmlns="http://www.w3.org/2000/svg" width="760" height="470" viewBox="0 0 760 470">
    <rect width="100%" height="100%" fill="#0f0f11"/><g transform="translate(40,50) scale(0.6666666666666666)">
    <rect width="144" height="144" rx="18" fill="#14301c"/>
    <rect x="2.5" y="2.5" width="139" height="139" rx="16" fill="none" stroke="#7ad07a" stroke-width="5"/>
    <g transform="translate(72, 58)"><path d="M-22 2 L-7 17 L22 -15" fill="none" stroke="#7ad07a" stroke-width="10" stroke-linecap="round" stroke-linejoin="round"/></g>
    <text x="72" y="122" font-family="Segoe UI, Inter, sans-serif" font-size="19"
             font-weight="600" fill="#7ad07a" text-anchor="middle">APPROVE</text>
    
  </g><text x="88" y="162" font-family="Segoe UI, Inter, sans-serif" font-size="12"
    font-weight="400" fill="#8a8a92" text-anchor="middle">批准</text><g transform="translate(146,50) scale(0.6666666666666666)">
    <rect width="144" height="144" rx="18" fill="#1b1b1e"/>
    
    <g transform="translate(72, 54)"><path d="M 0 0 Q 4.94 -14.3 0 -26 Q -4.94 -14.3 0 0 Z" fill="#d97757" transform="rotate(0)"/><path d="M 0 0 Q 4.94 -14.3 0 -26 Q -4.94 -14.3 0 0 Z" fill="#d97757" transform="rotate(36)"/><path d="M 0 0 Q 4.94 -14.3 0 -26 Q -4.94 -14.3 0 0 Z" fill="#d97757" transform="rotate(72)"/><path d="M 0 0 Q 4.94 -14.3 0 -26 Q -4.94 -14.3 0 0 Z" fill="#d97757" transform="rotate(108)"/><path d="M 0 0 Q 4.94 -14.3 0 -26 Q -4.94 -14.3 0 0 Z" fill="#d97757" transform="rotate(144)"/><path d="M 0 0 Q 4.94 -14.3 0 -26 Q -4.94 -14.3 0 0 Z" fill="#d97757" transform="rotate(180)"/><path d="M 0 0 Q 4.94 -14.3 0 -26 Q -4.94 -14.3 0 0 Z" fill="#d97757" transform="rotate(216)"/><path d="M 0 0 Q 4.94 -14.3 0 -26 Q -4.94 -14.3 0 0 Z" fill="#d97757" transform="rotate(252)"/><path d="M 0 0 Q 4.94 -14.3 0 -26 Q -4.94 -14.3 0 0 Z" fill="#d97757" transform="rotate(288)"/><path d="M 0 0 Q 4.94 -14.3 0 -26 Q -4.94 -14.3 0 0 Z" fill="#d97757" transform="rotate(324)"/></g>
    <text x="72" y="116" font-family="Segoe UI, Inter, sans-serif" font-size="19"
             font-weight="600" fill="#8a8a92" text-anchor="middle">SEND</text>
    
    <rect x="14" y="130" width="116" height="6" rx="3" fill="#2f2f36"/>
    <rect x="14" y="130" width="71.9" height="6" rx="3" fill="#7ad07a"/>
  </g><text x="194" y="162" font-family="Segoe UI, Inter, sans-serif" font-size="12"
    font-weight="400" fill="#8a8a92" text-anchor="middle">狀態 / 送出</text><g transform="translate(252,50) scale(0.6666666666666666)">
    <rect width="144" height="144" rx="18" fill="#331616"/>
    <rect x="2.5" y="2.5" width="139" height="139" rx="16" fill="none" stroke="#f07a7a" stroke-width="5"/>
    <g transform="translate(72, 58)"><path d="M-17 -17 L17 17 M17 -17 L-17 17" fill="none" stroke="#f07a7a" stroke-width="10" stroke-linecap="round" stroke-linejoin="round"/></g>
    <text x="72" y="122" font-family="Segoe UI, Inter, sans-serif" font-size="19"
             font-weight="600" fill="#f07a7a" text-anchor="middle">DENY</text>
    
  </g><text x="300" y="162" font-family="Segoe UI, Inter, sans-serif" font-size="12"
    font-weight="400" fill="#8a8a92" text-anchor="middle">拒絕</text><g transform="translate(40,180) scale(0.6666666666666666)">
    <rect width="144" height="144" rx="18" fill="#1b1b1e"/>
    
    <g transform="translate(72, 58)"><circle cx="0" cy="0" r="30" fill="none"
        stroke="#2f2f36" stroke-width="7"/><circle cx="0" cy="0" r="30" fill="none" stroke="#7aa2f7"
          stroke-width="7" stroke-linecap="round"
          stroke-dasharray="116.87 71.63"
          transform="rotate(-90)"/><circle cx="0" cy="0" r="19" fill="none"
        stroke="#2f2f36" stroke-width="7"/><circle cx="0" cy="0" r="19" fill="none" stroke="#7aa2f7"
          stroke-width="7" stroke-linecap="round"
          stroke-dasharray="33.43 85.95"
          transform="rotate(-90)"/></g>
    <text x="72" y="122" font-family="Segoe UI, Inter, sans-serif" font-size="19"
             font-weight="600" fill="#7aa2f7" text-anchor="middle">28%</text>
    
  </g><text x="88" y="292" font-family="Segoe UI, Inter, sans-serif" font-size="12"
    font-weight="400" fill="#8a8a92" text-anchor="middle">用量</text><g transform="translate(146,180) scale(0.6666666666666666)">
    <rect width="144" height="144" rx="18" fill="#1b1b1e"/>
    
    <g transform="translate(72, 58)">
    <rect x="-9" y="-26" width="18" height="32" rx="9" fill="#e9e9ee"/>
    <path d="M-18 0 a18 18 0 0 0 36 0" fill="none" stroke="#e9e9ee" stroke-width="6" stroke-linecap="round" stroke-linejoin="round"/>
    <path d="M0 18 L0 27" fill="none" stroke="#e9e9ee" stroke-width="6" stroke-linecap="round" stroke-linejoin="round"/></g>
    <text x="72" y="122" font-family="Segoe UI, Inter, sans-serif" font-size="19"
             font-weight="600" fill="#8a8a92" text-anchor="middle">VOICE</text>
    
  </g><text x="194" y="292" font-family="Segoe UI, Inter, sans-serif" font-size="12"
    font-weight="400" fill="#8a8a92" text-anchor="middle">語音</text><g transform="translate(252,180) scale(0.6666666666666666)">
    <rect width="144" height="144" rx="18" fill="#1b1b1e"/>
    
    <g transform="translate(72, 58)"><rect x="-15" y="-15" width="30" height="30" rx="5" fill="#f07a7a"/></g>
    <text x="72" y="122" font-family="Segoe UI, Inter, sans-serif" font-size="19"
             font-weight="600" fill="#f07a7a" text-anchor="middle">STOP</text>
    
  </g><text x="300" y="292" font-family="Segoe UI, Inter, sans-serif" font-size="12"
    font-weight="400" fill="#8a8a92" text-anchor="middle">中斷</text><circle cx="500" cy="98" r="34" fill="#26262b" stroke="#3a3a40" stroke-width="3"/><text x="500" y="104" font-family="Segoe UI, Inter, sans-serif" font-size="15"
    font-weight="600" fill="#e9e9ee" text-anchor="middle">K2</text><text x="500" y="152" font-family="Segoe UI, Inter, sans-serif" font-size="12"
    font-weight="400" fill="#8a8a92" text-anchor="middle">大旋鈕</text><text x="500" y="169" font-family="Segoe UI, Inter, sans-serif" font-size="11"
    font-weight="400" fill="#d97757" text-anchor="middle">捲動對話</text><circle cx="88" cy="340" r="17" fill="#26262b" stroke="#3a3a40" stroke-width="2"/><text x="88" y="374" font-family="Segoe UI, Inter, sans-serif" font-size="11"
    font-weight="400" fill="#d97757" text-anchor="middle">MODE</text><circle cx="194" cy="340" r="17" fill="#26262b" stroke="#3a3a40" stroke-width="2"/><text x="194" y="374" font-family="Segoe UI, Inter, sans-serif" font-size="11"
    font-weight="400" fill="#d97757" text-anchor="middle">FORK</text><circle cx="300" cy="340" r="17" fill="#26262b" stroke="#3a3a40" stroke-width="2"/><text x="300" y="374" font-family="Segoe UI, Inter, sans-serif" font-size="11"
    font-weight="400" fill="#d97757" text-anchor="middle">ARCHIVE</text><text x="194" y="398" font-family="Segoe UI, Inter, sans-serif" font-size="11"
    font-weight="400" fill="#8a8a92" text-anchor="middle">↑ 無螢幕，靠位置記憶</text><circle cx="466" cy="340" r="21" fill="#26262b" stroke="#3a3a40" stroke-width="2"/><text x="466" y="346" font-family="Segoe UI, Inter, sans-serif" font-size="12"
    font-weight="600" fill="#e9e9ee" text-anchor="middle">K1</text><text x="466" y="378" font-family="Segoe UI, Inter, sans-serif" font-size="11"
    font-weight="400" fill="#d97757" text-anchor="middle">model</text><circle cx="556" cy="340" r="21" fill="#26262b" stroke="#3a3a40" stroke-width="2"/><text x="556" y="346" font-family="Segoe UI, Inter, sans-serif" font-size="12"
    font-weight="600" fill="#e9e9ee" text-anchor="middle">K3</text><text x="556" y="378" font-family="Segoe UI, Inter, sans-serif" font-size="11"
    font-weight="400" fill="#d97757" text-anchor="middle">session</text><text x="511" y="398" font-family="Segoe UI, Inter, sans-serif" font-size="11"
    font-weight="400" fill="#8a8a92" text-anchor="middle">↑ 小旋鈕</text><text x="40" y="28" font-family="Segoe UI, Inter, sans-serif" font-size="15"
    font-weight="600" fill="#e9e9ee" text-anchor="start">AKP03 Agent Deck — 佈局</text><text x="724" y="28" font-family="Segoe UI, Inter, sans-serif" font-size="11"
    font-weight="400" fill="#8a8a92" text-anchor="end">6 LCD 鍵 · 3 實體鍵 · 3 旋鈕</text></svg>